# xmcd
#
# Track frame offsets:
#	150
#	11895
#	26103
#	39885
#	55941
#	71684
#	87756
#	101671
#	115198
#	130051
#	142979
#	160395
#	174843
#
# Disc length: 2545 seconds
# Revision: 0
# Processed by: cddbd v1.5.2PL0 Copyright (c) Steve Scherf et al.
# Submitted via: dBpowerAMP V12.0
#
DISCID=a609ef0d
DTITLE=Griffith, Nanci - The Loving Kind
DYEAR=2009
DGENRE=Country
TTITLE0=The Loving Kind
TTITLE1=Money Changes Everything
TTITLE2=One of These Days
TTITLE3=Up Against the Rain
TTITLE4=Cotton's All We Got
TTITLE5=Not Innocent Enough
TTITLE6=Across America
TTITLE7=Party Girl
TTITLE8=Sing
TTITLE9=Things I Don't Need
TTITLE10=Still Life
TTITLE11=Tequila After Midnight
TTITLE12=Pour Me a Drink
EXTD=
EXTT0=
EXTT1=
EXTT2=
EXTT3=
EXTT4=
EXTT5=
EXTT6=
EXTT7=
EXTT8=
EXTT9=
EXTT10=
EXTT11=
EXTT12=
PLAYORDER=
